<mxfile host="app.diagrams.net" agent="Mozilla/5.0 (Windows NT 10.0; Win64; x64) AppleWebKit/537.36 (KHTML, like Gecko) Chrome/133.0.0.0 Safari/537.36 Edg/133.0.0.0" version="26.0.16">
  <diagram name="第 1 页" id="fkqNxUABCfVv3Co3ChzE">
    <mxGraphModel dx="767" dy="791" grid="1" gridSize="10" guides="1" tooltips="1" connect="1" arrows="1" fold="1" page="1" pageScale="1" pageWidth="827" pageHeight="1169" math="0" shadow="0">
      <root>
        <mxCell id="0" />
        <mxCell id="1" parent="0" />
        <mxCell id="7nGSpBxhCRrjDGXLMfjQ-1" value="&lt;div&gt;&lt;b&gt;You will assist me in summarizing which types of users might dislike a specific toy product.&lt;/b&gt;&lt;/div&gt;&lt;div&gt;&lt;b&gt;I will provide you with information in the form of a JSON string that describes the toy product:&lt;/b&gt;&lt;/div&gt;&lt;div&gt;{&lt;/div&gt;&lt;div&gt;&amp;nbsp; &amp;nbsp; &quot;&lt;font style=&quot;color: rgb(255, 9, 9);&quot;&gt;title&lt;/font&gt;&quot;: &quot;the title of the toy product&quot;, (if there is no title, I will set this value to &quot;None&quot;)&lt;/div&gt;&lt;div&gt;&amp;nbsp; &amp;nbsp; &quot;&lt;font style=&quot;color: rgb(255, 9, 9);&quot;&gt;brand&lt;/font&gt;&quot;: &quot;the brand of the toy product&quot;, (if there is no brand, I will set this value to &quot;None&quot;)&lt;/div&gt;&lt;div&gt;&amp;nbsp; &amp;nbsp; &quot;&lt;font style=&quot;color: rgb(255, 9, 9);&quot;&gt;categories&lt;/font&gt;&quot;: &quot;the categories of the toy product&quot;, (if there are no categories, I will set this value to &quot;None&quot;)&lt;/div&gt;&lt;div&gt;&amp;nbsp; &amp;nbsp; &quot;&lt;font style=&quot;color: rgb(255, 9, 9);&quot;&gt;summarization&lt;/font&gt;&quot;: &quot;An summary of the types of users who might enjoy this toy&quot; (if unavailable, this will be set to &quot;None&quot;),&lt;/div&gt;&lt;div&gt;}&lt;/div&gt;&lt;div&gt;Your Task:&lt;/div&gt;&lt;div&gt;1. Please provide your answer in JSON format, following this updated structure:&lt;/div&gt;&lt;div&gt;{&lt;/div&gt;&lt;div&gt;&amp;nbsp; &amp;nbsp; &quot;&lt;font style=&quot;color: rgb(255, 9, 9);&quot;&gt;summarization&lt;/font&gt;&quot;: &quot;A summary of the types of users who might dislike this toy product&quot; (if you cannot summarize, set this value to &quot;None&quot;),&lt;/div&gt;&lt;div&gt;&amp;nbsp; &amp;nbsp; &quot;&lt;font style=&quot;color: rgb(255, 9, 9);&quot;&gt;reasoning&lt;/font&gt;&quot;: &quot;A brief explanation of why this summarization is appropriate&quot;&lt;/div&gt;&lt;div&gt;}&lt;/div&gt;&lt;div&gt;2. Ensure that the &quot;summarization&quot; does not exceed 200 words.&lt;/div&gt;&lt;div&gt;3. Ensure that the &quot;reasoning&quot; is no longer than 200 words.&lt;/div&gt;&lt;div&gt;4. Do not include any text or commentary outside the JSON response.&lt;/div&gt;&lt;div&gt;&lt;br&gt;&lt;/div&gt;" style="rounded=0;whiteSpace=wrap;html=1;fillColor=#FFFDF6;strokeColor=#B0C4DE;dashed=1;dashPattern=8 8;align=left;fontSize=12;" vertex="1" parent="1">
          <mxGeometry x="50" y="220" width="690" height="300" as="geometry" />
        </mxCell>
      </root>
    </mxGraphModel>
  </diagram>
</mxfile>
